<svg xmlns="http://www.w3.org/2000/svg" xmlns:xlink="http://www.w3.org/1999/xlink" width="300" zoomAndPan="magnify" viewBox="0 0 224.87999 225" height="300" preserveAspectRatio="xMidYMid meet" version="1.0"><defs><clipPath id="229ae263f4"><path d="M 5.527344 24.15625 L 219.15625 24.15625 L 219.15625 59.6875 L 5.527344 59.6875 Z M 5.527344 24.15625 " clip-rule="nonzero"/></clipPath><clipPath id="053c40a3f5"><path d="M 5.527344 94.390625 L 219.15625 94.390625 L 219.15625 130.746094 L 5.527344 130.746094 Z M 5.527344 94.390625 " clip-rule="nonzero"/></clipPath><clipPath id="77bf1d1562"><path d="M 5.527344 165.449219 L 219.15625 165.449219 L 219.15625 201.0625 L 5.527344 201.0625 Z M 5.527344 165.449219 " clip-rule="nonzero"/></clipPath></defs><g clip-path="url(#229ae263f4)"><path fill="#1e1e1e" d="M 201.496094 59.546875 L 23.183594 59.546875 C 13.433594 59.546875 5.527344 51.625 5.527344 41.851562 C 5.527344 32.082031 13.433594 24.160156 23.183594 24.160156 L 201.496094 24.160156 C 211.25 24.160156 219.152344 32.082031 219.152344 41.851562 C 219.152344 51.625 211.25 59.546875 201.496094 59.546875 " fill-opacity="1" fill-rule="nonzero"/></g><g clip-path="url(#053c40a3f5)"><path fill="#1e1e1e" d="M 201.496094 130.320312 L 23.183594 130.320312 C 13.433594 130.320312 5.527344 122.402344 5.527344 112.628906 C 5.527344 102.855469 13.433594 94.933594 23.183594 94.933594 L 201.496094 94.933594 C 211.25 94.933594 219.152344 102.855469 219.152344 112.628906 C 219.152344 122.402344 211.25 130.320312 201.496094 130.320312 " fill-opacity="1" fill-rule="nonzero"/></g><g clip-path="url(#77bf1d1562)"><path fill="#1e1e1e" d="M 201.496094 201.097656 L 23.183594 201.097656 C 13.433594 201.097656 5.527344 193.175781 5.527344 183.402344 C 5.527344 173.628906 13.433594 165.710938 23.183594 165.710938 L 201.496094 165.710938 C 211.25 165.710938 219.152344 173.628906 219.152344 183.402344 C 219.152344 193.175781 211.25 201.097656 201.496094 201.097656 " fill-opacity="1" fill-rule="nonzero"/></g><path stroke-linecap="butt" transform="matrix(0.7496, 0, 0, 0.7496, 46.979126, 41.458088)" fill="none" stroke-linejoin="miter" d="M 0.00179096 1.999658 L 96.000915 1.999658 " stroke="#1e1e1e" stroke-width="4" stroke-opacity="1" stroke-miterlimit="4"/></svg>